<?xml version="1.0" encoding="utf-8"?>
<!-- Generator: Adobe Illustrator 18.1.1, SVG Export Plug-In . SVG Version: 6.00 Build 0)  -->
<svg version="1.1" id="Warstwa_1" xmlns="http://www.w3.org/2000/svg" xmlns:xlink="http://www.w3.org/1999/xlink" x="0px" y="0px"
	 width="500px" height="500px" viewBox="0 0 500 500" enable-background="new 0 0 500 500" xml:space="preserve">
<path fill="none" stroke="#FFFFFF" stroke-width="20" stroke-linecap="round" stroke-linejoin="round" stroke-miterlimit="10" d="
	M118,189.8v98.1c0,66,53.5,119.4,119.5,119.4s119.4-53.5,119.4-119.4v-98.1H118z"/>
<path fill="none" stroke="#FFFFFF" stroke-width="20" stroke-linecap="round" stroke-linejoin="round" stroke-miterlimit="10" d="
	M356.9,189.8c33,0,59.7,26.7,59.7,59.7s-26.7,59.7-59.7,59.7"/>
<g>
	<path fill="none" stroke="#FFFFFF" stroke-width="20" stroke-linecap="round" stroke-linejoin="round" stroke-miterlimit="10" d="
		M183.2,145.2c-3-10.2-4.7-20.9-4.7-32c0-12.3,2-24.2,5.8-35.4"/>
</g>
<g>
	<path fill="none" stroke="#FFFFFF" stroke-width="20" stroke-linecap="round" stroke-linejoin="round" stroke-miterlimit="10" d="
		M290,145.2c-3-10.2-4.7-20.9-4.7-32c0-12.3,2-24.2,5.8-35.4"/>
</g>
<g>
	<path fill="none" stroke="#FFFFFF" stroke-width="20" stroke-linecap="round" stroke-linejoin="round" stroke-miterlimit="10" d="
		M237.2,155.2c-4-13.2-6.1-27.1-6.1-41.7c0-16.1,2.7-31.5,7.5-45.9"/>
</g>
</svg>
