<?xml version="1.0" encoding="utf-8"?>
<!-- Generator: Adobe Illustrator 15.0.0, SVG Export Plug-In . SVG Version: 6.00 Build 0)  -->
<!DOCTYPE svg PUBLIC "-//W3C//DTD SVG 1.1//EN" "http://www.w3.org/Graphics/SVG/1.1/DTD/svg11.dtd">
<svg version="1.1" id="Capa_1" xmlns="http://www.w3.org/2000/svg" xmlns:xlink="http://www.w3.org/1999/xlink" x="0px" y="0px"
	 width="64px" height="64px" viewBox="0 0 64 64" enable-background="new 0 0 64 64" xml:space="preserve">
<g>
	<g>
		<path fill="#FFFFFF" d="M11.122,54.211c-0.343,0-0.688-0.131-0.95-0.393c-0.761-0.762-1.18-1.776-1.179-2.853
			c0.001-1.071,0.422-2.08,1.182-2.84c1.519-1.514,4.17-1.517,5.689,0.003c0.522,0.519,1.378,0.519,1.899-0.003
			c0.52-0.521,0.52-1.372-0.002-1.899c-0.76-0.754-1.18-1.766-1.18-2.839c0-1.077,0.42-2.088,1.184-2.848
			c1.511-1.514,4.165-1.517,5.687,0.003c0.521,0.519,1.375,0.519,1.896,0c0.523-0.523,0.523-1.373,0-1.896
			c-1.567-1.569-1.567-4.123-0.001-5.691c1.517-1.52,4.167-1.522,5.69,0c0.508,0.508,1.389,0.508,1.895,0
			c0.256-0.255,0.396-0.593,0.395-0.95c0-0.356-0.139-0.691-0.391-0.943c-1.568-1.573-1.567-4.125-0.004-5.691
			c1.527-1.524,4.171-1.522,5.69-0.001c0.254,0.254,0.592,0.396,0.95,0.396h0.003c0.356-0.001,0.691-0.14,0.943-0.393
			c0.523-0.525,0.523-1.378,0-1.904c-1.562-1.564-1.562-4.114,0-5.683c0.759-0.76,1.769-1.18,2.839-1.181c0.003,0,0.006,0,0.006,0
			c1.074,0,2.085,0.419,2.848,1.179c0.508,0.511,1.388,0.509,1.896,0.001c0.254-0.254,0.393-0.592,0.393-0.95
			c0-0.356-0.142-0.69-0.393-0.942c-1.566-1.581-1.566-4.133-0.004-5.697c1.57-1.569,4.129-1.566,5.693,0.003
			c0.523,0.525,0.523,1.374,0,1.897c-0.524,0.521-1.373,0.522-1.896-0.001c-0.524-0.527-1.376-0.525-1.9-0.001
			c-0.521,0.521-0.518,1.376,0.006,1.904c0.754,0.749,1.174,1.757,1.176,2.832c0.003,1.075-0.416,2.088-1.178,2.851
			c-1.52,1.522-4.171,1.522-5.689,0c-0.255-0.254-0.593-0.394-0.951-0.394l0,0c-0.356,0.001-0.691,0.14-0.943,0.393
			c-0.521,0.524-0.523,1.374-0.002,1.895c1.562,1.574,1.562,4.127,0,5.692c-0.755,0.76-1.766,1.179-2.84,1.182c0,0-0.003,0-0.006,0
			c-1.074,0-2.084-0.42-2.847-1.182c-0.509-0.508-1.389-0.512-1.896,0.001c-0.521,0.521-0.521,1.373,0.001,1.896
			c0.758,0.754,1.178,1.764,1.18,2.839c0,1.077-0.418,2.088-1.182,2.848c-1.515,1.523-4.169,1.523-5.688,0
			c-0.502-0.506-1.39-0.509-1.894,0c-0.524,0.523-0.524,1.375,0,1.898c0.758,0.76,1.177,1.771,1.177,2.845
			c0,1.073-0.419,2.085-1.179,2.845c-1.57,1.568-4.122,1.566-5.689,0c-0.505-0.508-1.39-0.508-1.895,0
			c-0.258,0.254-0.397,0.59-0.397,0.948c0,0.356,0.139,0.691,0.393,0.943c1.569,1.574,1.569,4.128,0.004,5.694
			c-1.57,1.564-4.122,1.566-5.692,0.003c-0.511-0.514-1.393-0.511-1.898-0.003c-0.254,0.254-0.393,0.59-0.394,0.945
			c0,0.359,0.14,0.697,0.396,0.951c0.522,0.523,0.522,1.373-0.001,1.896C11.808,54.08,11.465,54.211,11.122,54.211z"/>
		<path fill="#FFFFFF" d="M13.017,60.361c-2.404,0-4.808-0.916-6.639-2.745c-1.773-1.771-2.75-4.128-2.75-6.638
			s0.977-4.867,2.75-6.643l0,0L44.311,6.405c3.662-3.657,9.617-3.657,13.278,0c3.657,3.662,3.657,9.617,0,13.278L19.653,57.616
			C17.823,59.445,15.42,60.361,13.017,60.361z M8.274,46.232C7.008,47.5,6.31,49.188,6.31,50.979c0,1.792,0.698,3.477,1.965,4.741
			c2.614,2.614,6.868,2.614,9.482,0l37.936-37.933c2.612-2.614,2.612-6.87,0-9.485c-2.614-2.612-6.87-2.613-9.485,0.001
			L8.274,46.232z"/>
		<path fill="#FFFFFF" d="M23.583,64c-0.025,0-0.048,0-0.072,0c-3.393-0.023-6.629-1.514-9.358-4.316l1.92-1.871
			c2.219,2.277,4.796,3.486,7.455,3.505c2.374-0.103,4.798-0.987,6.562-2.753l28.445-28.45c3.004-3.007,4.607-8.499-0.775-14.081
			l1.933-1.862c6.297,6.534,4.909,13.668,0.739,17.839l-28.445,28.45C29.737,62.711,26.677,64,23.583,64z"/>
		<path fill="#FFFFFF" d="M5.242,50.25c-0.348,0-0.695-0.133-0.958-0.402c-6.318-6.457-4.817-13.771-0.75-17.835L31.985,3.562
			c4.968-4.977,11.645-4.724,17.853,0.672c0.559,0.486,0.619,1.333,0.131,1.893c-0.484,0.559-1.333,0.617-1.891,0.132
			c-5.098-4.436-10.275-4.728-14.195-0.8L5.431,33.91c-3.27,3.267-4.299,8.881,0.771,14.062c0.517,0.529,0.508,1.378-0.021,1.896
			C5.919,50.122,5.58,50.25,5.242,50.25z"/>
	</g>
</g>
</svg>
