<?xml version="1.0" encoding="utf-8"?>
<!-- Generator: Adobe Illustrator 15.0.0, SVG Export Plug-In . SVG Version: 6.00 Build 0)  -->
<!DOCTYPE svg PUBLIC "-//W3C//DTD SVG 1.1//EN" "http://www.w3.org/Graphics/SVG/1.1/DTD/svg11.dtd">
<svg version="1.1" id="Layer_1" xmlns="http://www.w3.org/2000/svg" xmlns:xlink="http://www.w3.org/1999/xlink" x="0px" y="0px"
	 width="64px" height="64px" viewBox="0 0 64 64" enable-background="new 0 0 64 64" xml:space="preserve">
<g>
	<g>
		<path fill="none" stroke="#FFFFFF" stroke-width="3" stroke-miterlimit="10" d="M57.783,21.308
			c-0.535-1.217-1.413-2.278-2.543-3.072c-0.646-0.454-1.366-0.814-2.137-1.067c-2.047-0.681-4.388-0.624-6.576,0.164
			c-0.004,0.001-0.012,0.004-0.016,0.007l-0.482,0.188c-1.178,0.486-2.287,1.2-3.215,2.062c-0.004,0.003-0.008,0.007-0.01,0.012
			c-0.318,0.312-0.416,0.415-0.453,0.458c-2.812,2.958-5.095,4.531-6.705,5.37c0.235-1.801,0.938-4.483,2.765-8.134
			c0.024-0.049,0.089-0.177,0.276-0.581c0.002-0.005,0.004-0.011,0.006-0.016c0.496-1.164,0.787-2.452,0.845-3.735l0.012-0.508
			c0.001-0.005,0.003-0.012,0.001-0.017c-0.008-3.225-1.478-6.254-3.838-7.909l0,0c-0.79-0.554-1.666-0.942-2.599-1.152
			c-1.611-0.361-3.332-0.154-4.849,0.586c-1.396,0.682-2.618,1.787-3.532,3.195c-0.524,0.809-0.936,1.706-1.22,2.656
			c-0.361,1.352-0.445,2.257-0.458,2.866c-0.078,3.323,1.38,6.492,3.8,8.191c0.412,0.288,0.853,0.536,1.31,0.738
			c0.258,0.113,0.519,0.211,0.783,0.292l-0.596,6.469l-17.521,9.338c-0.063,0.031-0.128,0.062-0.194,0.096
			c-0.399,0.195-0.814,0.4-1.2,0.711c-1.423,1.147-1.876,2.924-2.006,4.207c-0.062,0.625-0.07,1.135-0.019,1.604l0.118,1.2
			c0.021,0.197,0.134,0.369,0.302,0.467c0.171,0.098,0.376,0.104,0.552,0.021l19.42-9.143l-0.639,9.13l7.192-3.344l1.211-9.47
			l5.675-2.667c0.464,0.612,1.017,1.148,1.655,1.596c2.311,1.62,5.599,1.988,8.582,0.964c3.431-1.177,6.002-3.918,6.718-7.147
			C58.546,24.36,58.398,22.717,57.783,21.308L57.783,21.308z"/>
	</g>
</g>
<g>
	<g>
		<line fill="none" stroke="#FFFFFF" stroke-width="3" stroke-miterlimit="10" x1="2.208" y1="59.768" x2="7.973" y2="58.104"/>
		
			<line fill="none" stroke="#FFFFFF" stroke-width="3" stroke-miterlimit="10" stroke-dasharray="11.6687,3.8896" x1="11.709" y1="57.023" x2="54.686" y2="44.616"/>
		<line fill="none" stroke="#FFFFFF" stroke-width="3" stroke-miterlimit="10" x1="56.553" y1="44.076" x2="62.316" y2="42.412"/>
	</g>
</g>
</svg>
