<?xml version="1.0" encoding="utf-8"?>
<!-- Generator: Adobe Illustrator 15.0.0, SVG Export Plug-In . SVG Version: 6.00 Build 0)  -->
<!DOCTYPE svg PUBLIC "-//W3C//DTD SVG 1.1//EN" "http://www.w3.org/Graphics/SVG/1.1/DTD/svg11.dtd">
<svg version="1.1" id="Layer_1" xmlns="http://www.w3.org/2000/svg" xmlns:xlink="http://www.w3.org/1999/xlink" x="0px" y="0px"
	 width="64px" height="64px" viewBox="0 0 64 64" enable-background="new 0 0 64 64" xml:space="preserve">
<path fill="#FFFFFF" d="M40.781,40.07l-14.525,0.049L20.765,59.9c-0.212,0.762-0.902,1.26-1.652,1.26c-0.004,0-0.014,0-0.02,0
	c-0.001,0-0.005,0-0.009,0h-5.369c-0.947,0-1.715-0.768-1.715-1.715c0-0.949,0.768-1.717,1.715-1.717h4.095l5.487-19.779
	c0.205-0.742,0.878-1.258,1.645-1.258l14.121-0.043V20.39c-3.115,0.91-6.562,4.235-10.293,9.924h0.984
	c0.947,0,1.716,0.77,1.716,1.715c0,0.95-0.77,1.717-1.716,1.717H18.612c-0.722,0-1.371-0.457-1.616-1.141l-3.688-14.739
	c-0.317-0.895,0.147-1.875,1.039-2.192c0.893-0.319,1.874,0.145,2.191,1.037l3.285,13.603h4.976c0.043-0.164,0.11-0.324,0.206-0.477
	c5.509-8.84,10.666-13.135,15.771-13.135l0,0l0,0c0.948,0,1.716,0.768,1.716,1.715v19.94c0,0.027-0.005,0.055-0.005,0.082
	c-0.002,0.029-0.002,0.059-0.005,0.09c-0.003,0.027-0.009,0.055-0.014,0.082c-0.004,0.029-0.006,0.059-0.014,0.088
	c-0.004,0.027-0.012,0.055-0.018,0.08c-0.008,0.029-0.013,0.057-0.024,0.084c-0.006,0.025-0.016,0.055-0.027,0.08
	c-0.008,0.025-0.02,0.053-0.025,0.078c-0.015,0.027-0.028,0.053-0.04,0.08c-0.014,0.025-0.023,0.045-0.036,0.068
	c-0.014,0.027-0.029,0.051-0.043,0.076c-0.015,0.023-0.026,0.045-0.041,0.068c-0.016,0.023-0.036,0.047-0.053,0.07
	c-0.016,0.021-0.029,0.041-0.047,0.061c-0.018,0.021-0.038,0.045-0.059,0.066c-0.017,0.018-0.035,0.039-0.053,0.057
	c-0.018,0.02-0.041,0.037-0.062,0.059c-0.019,0.018-0.036,0.033-0.056,0.053c-0.024,0.02-0.048,0.029-0.069,0.049
	c-0.022,0.016-0.043,0.031-0.064,0.047c-0.025,0.018-0.048,0.031-0.07,0.043c-0.021,0.016-0.047,0.033-0.071,0.047
	c-0.023,0.012-0.047,0.023-0.072,0.033c-0.026,0.014-0.051,0.025-0.078,0.035c-0.027,0.016-0.051,0.021-0.078,0.029
	c-0.027,0.012-0.053,0.023-0.08,0.031c-0.026,0.006-0.052,0.012-0.079,0.02c-0.028,0.01-0.054,0.016-0.084,0.023
	c-0.027,0.004-0.056,0.008-0.087,0.014c-0.027,0.004-0.054,0.008-0.083,0.014c-0.028,0.002-0.058,0.002-0.089,0.004
	C40.838,40.068,40.811,40.07,40.781,40.07z M51.006,46.51c0-0.006,0-0.01,0-0.014V15.392c0-0.946-0.768-1.714-1.714-1.714
	c-0.948,0-1.716,0.768-1.716,1.714v29.403H31.057c-0.947,0-1.715,0.768-1.715,1.715s0.769,1.715,1.715,1.715h7.023v8.361h-2.879
	c-0.944,0-1.713,0.768-1.713,1.715c0,0.945,0.769,1.715,1.713,1.715h4.586c0.004,0,0.004,0,0.01,0c0.002,0,0.005,0,0.009,0h4.581
	c0.95,0,1.716-0.77,1.716-1.715c0-0.947-0.766-1.715-1.716-1.715H41.51v-8.361h7.771c0.005,0,0.007,0,0.011,0
	c0.297,0,0.571-0.074,0.816-0.205C50.646,47.729,51.006,47.164,51.006,46.51z M25.069,10.152C25.069,6.209,28.277,3,32.221,3
	c3.94,0,7.151,3.209,7.151,7.152c0,3.944-3.211,7.15-7.151,7.15C28.277,17.302,25.069,14.094,25.069,10.152z M28.498,10.152
	c0,2.053,1.669,3.721,3.721,3.721s3.722-1.668,3.722-3.721c0-2.052-1.67-3.721-3.72-3.721C30.167,6.432,28.498,8.101,28.498,10.152z
	"/>
</svg>
