<?xml version="1.0" encoding="UTF-8" standalone="no"?>
<svg
   xmlns:dc="http://purl.org/dc/elements/1.1/"
   xmlns:cc="http://creativecommons.org/ns#"
   xmlns:rdf="http://www.w3.org/1999/02/22-rdf-syntax-ns#"
   xmlns:svg="http://www.w3.org/2000/svg"
   xmlns="http://www.w3.org/2000/svg"
   xmlns:sodipodi="http://sodipodi.sourceforge.net/DTD/sodipodi-0.dtd"
   xmlns:inkscape="http://www.inkscape.org/namespaces/inkscape"
   width="804pt"
   height="162pt"
   viewBox="0 0 804 162"
   version="1.1"
   id="svg3195"
   inkscape:version="0.48.4 r9939"
   sodipodi:docname="flat-icons.svg">
  <metadata
     id="metadata3365">
    <rdf:RDF>
      <cc:Work
         rdf:about="">
        <dc:format>image/svg+xml</dc:format>
        <dc:type
           rdf:resource="http://purl.org/dc/dcmitype/StillImage" />
      </cc:Work>
    </rdf:RDF>
  </metadata>
  <defs
     id="defs3363" />
  <sodipodi:namedview
     pagecolor="#ffffff"
     bordercolor="#666666"
     borderopacity="1"
     objecttolerance="10"
     gridtolerance="10"
     guidetolerance="10"
     inkscape:pageopacity="0"
     inkscape:pageshadow="2"
     inkscape:window-width="1057"
     inkscape:window-height="669"
     id="namedview3361"
     showgrid="false"
     inkscape:zoom="1.0764909"
     inkscape:cx="587.90253"
     inkscape:cy="112.92104"
     inkscape:window-x="75"
     inkscape:window-y="336"
     inkscape:window-maximized="0"
     inkscape:current-layer="svg3195" />
  <path
     fill="#8d959a"
     d=" M 448.04 8.19 C 450.94 7.82 453.91 7.80 456.82 8.22 C 459.49 9.89 458.23 13.74 458.72 16.36 C 460.41 17.10 462.11 17.83 463.81 18.55 C 466.02 16.88 467.81 13.56 470.97 14.02 C 474.19 16.42 478.40 19.31 477.34 23.93 C 475.96 25.47 474.62 27.06 473.32 28.67 C 473.82 29.90 474.32 31.12 474.83 32.35 C 477.22 32.50 479.65 32.49 481.99 33.08 C 483.87 33.93 483.29 36.46 483.63 38.11 C 477.81 38.21 472.00 38.17 466.18 38.10 C 464.36 30.07 454.84 23.98 447.06 27.94 C 441.72 29.97 438.39 35.47 438.66 41.13 C 438.30 40.19 437.96 39.24 437.62 38.30 C 432.43 38.04 427.24 38.04 422.05 38.23 C 422.10 40.18 422.15 42.13 422.20 44.08 L 421.62 45.25 C 421.37 41.36 420.26 36.87 422.19 33.30 C 424.68 32.38 427.39 32.51 430.01 32.30 C 430.46 31.10 430.92 29.89 431.38 28.69 C 429.38 26.34 426.52 23.87 427.38 20.41 C 428.91 17.72 431.36 15.49 434.04 13.96 C 437.08 13.82 438.78 16.90 440.97 18.52 C 442.59 17.88 444.22 17.24 445.86 16.61 C 446.53 13.91 445.17 9.81 448.04 8.19 Z"
     id="path3199" />
  <path
     fill="#eb7d96"
     d=" M 99.46 16.43 C 101.95 13.79 103.97 10.64 107.00 8.56 C 110.15 9.76 112.15 12.69 114.52 14.94 C 112.59 17.13 110.66 19.33 108.73 21.51 C 106.99 23.47 105.25 25.42 103.52 27.38 C 101.65 29.50 99.78 31.63 97.90 33.75 C 95.83 31.16 91.98 29.34 91.45 25.94 C 93.67 22.42 96.82 19.63 99.46 16.43 Z"
     id="path3201" />
  <path
     fill="#cbd5d8"
     d=" M 177.92 9.83 C 182.25 9.10 186.65 8.95 191.03 8.98 C 202.35 9.03 213.66 8.97 224.97 9.00 C 226.25 9.13 228.49 8.76 228.73 10.51 C 228.80 16.69 228.83 22.88 228.66 29.05 C 228.72 31.48 227.10 33.90 224.66 34.41 C 220.92 35.03 217.12 34.67 213.35 34.76 C 205.55 34.65 197.73 34.93 189.93 34.66 C 187.22 34.70 184.56 32.66 184.40 29.85 C 183.97 23.22 184.40 16.56 184.24 9.92 C 182.13 9.87 180.03 9.80 177.92 9.83 Z"
     id="path3203" />
  <path
     fill="#898683"
     d=" M 515.90 9.52 C 520.11 8.41 524.57 9.21 528.89 9.02 C 528.90 11.07 528.91 13.11 528.93 15.16 C 526.22 15.27 523.41 14.96 520.80 15.82 C 518.94 17.41 519.71 20.17 519.31 22.31 C 522.42 22.66 525.55 22.88 528.68 23.08 C 528.77 25.11 528.86 27.14 528.95 29.17 C 521.21 28.84 513.43 28.57 505.70 29.37 C 503.82 29.49 501.18 29.89 500.15 27.85 C 498.81 25.92 499.80 22.98 502.08 22.39 C 505.71 22.03 509.36 22.32 513.00 22.26 C 513.46 18.05 511.32 12.05 515.90 9.52 Z"
     id="path3205" />
  <path
     fill="#9c9a95"
     d=" M 528.89 9.02 C 533.06 9.22 537.44 8.36 541.49 9.61 C 545.91 12.20 543.79 18.11 544.26 22.27 C 547.82 22.30 551.39 22.05 554.94 22.38 C 557.74 22.66 558.65 26.80 556.59 28.52 C 555.21 29.80 553.21 29.44 551.51 29.50 C 543.99 29.18 536.46 29.59 528.95 29.17 C 528.86 27.14 528.77 25.11 528.68 23.08 C 525.55 22.88 522.42 22.66 519.31 22.31 C 525.52 22.00 531.74 22.32 537.96 22.21 C 537.45 20.13 538.47 17.03 536.26 15.78 C 533.91 15.01 531.37 15.26 528.93 15.16 C 528.91 13.11 528.90 11.07 528.89 9.02 Z"
     id="path3207" />
  <path
     fill="#d1d1d2"
     d=" M 16.19 24.91 C 16.97 17.97 22.31 11.86 29.06 10.11 C 36.54 7.99 45.26 11.03 49.33 17.77 C 53.77 24.62 52.51 34.47 46.49 39.97 C 44.41 41.56 42.18 42.96 39.84 44.12 C 34.37 45.52 28.16 44.78 23.48 41.49 C 18.27 37.85 15.32 31.22 16.19 24.91 Z"
     id="path3209" />
  <path
     fill="#484546"
     d=" M 174.52 14.96 C 174.28 12.66 175.95 10.75 177.92 9.83 C 180.03 9.80 182.13 9.87 184.24 9.92 C 184.40 16.56 183.97 23.22 184.40 29.85 C 184.56 32.66 187.22 34.70 189.93 34.66 C 197.73 34.93 205.55 34.65 213.35 34.76 C 211.27 36.94 209.09 39.03 206.82 41.01 C 199.29 40.99 191.77 41.00 184.24 41.01 C 184.25 48.23 184.25 55.46 184.24 62.69 C 181.23 65.29 178.32 68.01 175.46 70.78 C 174.96 69.23 174.41 67.67 174.48 66.02 C 174.53 49.00 174.46 31.98 174.52 14.96 Z"
     id="path3211" />
  <path
     fill="#3a3939"
     d=" M 228.73 10.51 C 232.02 13.56 235.36 16.56 238.56 19.72 C 238.41 35.47 238.57 51.23 238.48 66.99 C 238.80 69.96 235.98 72.60 233.04 72.25 C 215.37 72.25 197.69 72.26 180.01 72.24 C 178.34 72.36 176.90 71.48 175.46 70.78 C 178.32 68.01 181.23 65.29 184.24 62.69 C 184.24 65.30 184.25 67.90 184.25 70.50 C 199.08 70.50 213.92 70.50 228.75 70.50 C 228.76 60.67 228.75 50.84 228.76 41.00 C 221.44 41.00 214.13 40.99 206.82 41.01 C 209.09 39.03 211.27 36.94 213.35 34.76 C 217.12 34.67 220.92 35.03 224.66 34.41 C 227.10 33.90 228.72 31.48 228.66 29.05 C 228.83 22.88 228.80 16.69 228.73 10.51 Z"
     id="path3213" />
  <path
     fill="#77abba"
     d=" M 29.36 14.44 C 36.31 11.87 44.91 15.73 47.07 22.94 C 49.59 29.86 45.15 38.17 38.04 40.01 C 31.46 42.04 23.54 38.55 21.24 31.91 C 18.43 25.13 22.36 16.64 29.36 14.44 Z"
     id="path3215" />
  <path
     fill="#484546"
     d=" M 215.02 13.87 C 217.95 13.22 221.01 13.35 223.97 13.72 C 226.11 17.67 224.62 22.73 225.00 27.12 C 225.17 30.37 221.19 29.86 219.04 29.86 C 217.19 29.95 214.15 29.75 214.30 27.18 C 214.52 22.79 213.40 18.03 215.02 13.87 Z"
     id="path3217" />
  <path
     fill="#3a3939"
     d=" M 601.58 25.22 C 606.36 21.17 610.04 14.65 616.91 14.08 C 624.69 13.01 632.13 20.16 631.48 27.97 C 631.12 35.55 623.85 39.55 619.40 44.74 C 619.27 42.20 618.85 39.69 618.11 37.26 C 620.79 34.16 625.33 31.66 625.29 27.06 C 625.38 22.15 619.32 18.38 615.07 21.06 C 610.25 24.53 606.80 29.56 602.07 33.14 C 601.67 30.52 601.56 27.87 601.58 25.22 Z"
     id="path3219" />
  <path
     fill="#3f67b1"
     d=" M 114.52 14.94 C 126.85 26.46 138.63 38.59 151.12 49.93 C 147.84 48.07 143.58 49.65 143.82 53.84 L 143.61 54.88 C 137.57 49.43 132.06 43.41 126.00 37.97 C 120.04 32.69 114.71 26.76 108.73 21.51 C 110.66 19.33 112.59 17.13 114.52 14.94 Z"
     id="path3221" />
  <path
     fill="#93c4cf"
     d=" M 32.31 16.36 C 37.10 14.46 42.92 19.26 41.49 24.33 C 40.76 28.84 35.09 31.22 31.26 28.84 C 26.10 26.50 26.88 17.89 32.31 16.36 Z"
     id="path3225" />
  <path
     fill="#5d7dbe"
     d=" M 103.52 27.38 C 105.25 25.42 106.99 23.47 108.73 21.51 C 114.71 26.76 120.04 32.69 126.00 37.97 C 132.06 43.41 137.57 49.43 143.61 54.88 L 143.82 53.84 C 144.53 54.87 145.29 55.88 146.06 56.87 C 144.09 55.84 141.19 54.06 139.52 56.56 C 137.59 58.41 139.12 60.89 139.82 62.92 C 138.61 62.36 137.40 61.82 136.18 61.29 C 136.37 61.01 136.76 60.47 136.95 60.20 C 129.97 53.11 122.69 46.34 115.65 39.32 C 111.67 35.28 107.17 31.75 103.52 27.38 Z"
     id="path3227" />
  <path
     fill="#656161"
     d=" M 594.24 34.98 C 595.24 30.84 598.81 28.19 601.58 25.22 C 601.56 27.87 601.67 30.52 602.07 33.14 L 603.26 32.63 C 601.28 34.20 599.59 36.40 599.96 39.09 C 599.90 41.62 602.03 43.26 603.63 44.89 C 602.16 46.36 600.72 47.89 598.99 49.06 C 594.66 45.97 592.69 40.06 594.24 34.98 Z"
     id="path3229" />
  <path
     fill="#779fd4"
     d=" M 97.90 33.75 C 99.78 31.63 101.65 29.50 103.52 27.38 C 107.17 31.75 111.67 35.28 115.65 39.32 C 122.69 46.34 129.97 53.11 136.95 60.20 C 136.76 60.47 136.37 61.01 136.18 61.29 C 134.18 63.11 132.79 65.51 133.65 68.30 C 121.76 56.76 109.85 45.23 97.90 33.75 Z"
     id="path3231" />
  <path
     fill="#656161"
     d=" M 256.69 43.36 C 266.13 32.50 281.12 26.97 295.34 29.30 C 294.53 30.85 293.72 32.39 292.90 33.93 C 287.78 31.53 281.00 33.11 278.17 38.20 C 275.51 42.27 276.49 47.61 279.44 51.23 C 277.68 52.74 275.87 54.50 276.23 57.03 C 268.76 54.21 261.21 50.19 256.69 43.36 Z"
     id="path3235" />
  <path
     d="M 463.71875 36.1875 C 448.61875 35.9625 433.50625 42.83125 424.03125 54.65625 C 427.61875 59.10625 431.96875 62.9125 436.84375 65.875 C 457.84375 78.85 488.00625 74.325 503.46875 54.8125 C 494.13125 42.7875 478.84375 35.975 463.71875 36.1875 z M 463.6875 37.4375 C 478.125 37.1625 492.25625 43.775 501.71875 54.625 C 486.41875 73.3375 456.96875 77.38125 436.84375 64.28125 C 432.64375 61.70625 429.03125 58.3 425.78125 54.625 C 435.19375 43.7875 449.2875 37.225 463.6875 37.4375 z M 462.90625 40.3125 C 461.7446 40.320825 460.56563 40.467188 459.40625 40.8125 C 448.50625 42.8625 444.50625 58.55 453.34375 65.375 C 461.28125 73.125 476.5375 67.5875 477.1875 56.375 C 478.62031 47.93125 471.03777 40.254224 462.90625 40.3125 z M 462.4375 41.625 C 469.48776 41.475116 476.52812 47.617188 476 55.03125 C 476.0875 62.94375 467.675 69.35625 460.0625 67.40625 C 453.15 65.98125 448.0375 58.3375 450.1875 51.4375 C 451.15 47.6 454.05625 44.35625 457.65625 42.78125 C 459.19375 42.0125 460.81052 41.659589 462.4375 41.625 z M 462.5 47.625 C 461.83638 47.665845 461.16094 47.79375 460.5 48.0625 C 455.7125 49.4625 454.2375 56.31875 457.875 59.65625 C 461.275 63.24375 468.3 61.86875 469.625 56.90625 C 471.45156 52.235937 467.14536 47.339087 462.5 47.625 z "
     transform="scale(0.8,0.8)"
     id="path3237" />
  <path
     fill="#7c7a75"
     d=" M 505.70 29.37 C 513.43 28.57 521.21 28.84 528.95 29.17 C 536.46 29.59 543.99 29.18 551.51 29.50 C 551.50 30.05 551.49 31.13 551.49 31.68 C 548.76 31.71 546.04 31.84 543.33 32.06 C 541.77 32.17 540.21 32.17 538.66 32.06 C 536.11 31.85 533.55 31.91 531.01 32.11 C 529.59 32.17 528.17 32.13 526.76 32.09 C 524.40 35.62 525.28 40.01 525.17 43.99 C 525.39 50.31 524.83 56.65 525.35 62.95 C 525.45 64.93 527.66 65.63 528.87 66.84 C 528.88 68.55 528.91 70.27 528.94 71.99 C 522.93 71.92 516.92 72.17 510.93 71.91 C 507.87 71.87 505.69 68.90 505.80 65.99 C 505.63 53.79 505.85 41.57 505.70 29.37 Z"
     id="path3239" />
  <path
     fill="#3a3939"
     d=" M 295.34 29.30 C 305.34 30.67 314.57 35.94 321.12 43.57 C 310.87 56.96 292.10 61.53 276.23 57.03 C 275.87 54.50 277.68 52.74 279.44 51.23 C 282.24 53.69 286.05 55.45 289.83 54.50 C 295.63 53.44 299.96 47.21 298.49 41.40 C 297.83 38.21 295.45 35.79 292.90 33.93 C 293.72 32.39 294.53 30.85 295.34 29.30 Z"
     id="path3241" />
  <path
     fill="#828c90"
     d=" M 450.25 30.37 C 455.14 28.98 460.74 32.76 460.95 37.91 C 461.56 42.21 459.55 47.58 454.88 48.53 C 452.40 48.77 449.53 49.12 447.45 47.45 C 441.43 43.35 442.66 31.94 450.25 30.37 Z"
     id="path3245" />
  <path
     fill="#5e5c56"
     d=" M 512.93 35.95 C 512.48 33.81 514.53 32.79 515.86 31.58 C 516.93 32.10 518.00 32.62 519.09 33.13 C 519.73 39.75 519.28 46.39 519.42 53.02 C 519.35 56.64 519.70 60.29 519.14 63.88 C 518.76 65.89 516.14 66.43 514.56 65.46 C 512.55 64.95 513.06 62.59 512.87 61.04 C 512.92 52.68 512.86 44.31 512.93 35.95 Z"
     id="path3249" />
  <path
     fill="#615f58"
     d=" M 526.76 32.09 C 528.17 32.13 529.59 32.17 531.01 32.11 C 532.29 41.71 531.36 51.44 531.66 61.09 C 532.01 63.48 530.29 65.19 528.87 66.84 C 527.66 65.63 525.45 64.93 525.35 62.95 C 524.83 56.65 525.39 50.31 525.17 43.99 C 525.28 40.01 524.40 35.62 526.76 32.09 Z"
     id="path3251" />
  <path
     fill="#8d8b85"
     d=" M 531.01 32.11 C 533.55 31.91 536.11 31.85 538.66 32.06 C 536.73 39.24 538.00 46.70 537.64 54.02 C 537.83 57.80 536.92 61.94 538.69 65.44 C 540.44 66.04 543.43 66.33 543.89 63.94 C 544.69 59.34 544.14 54.64 544.24 50.00 C 544.15 44.01 544.85 37.93 543.33 32.06 C 546.04 31.84 548.76 31.71 551.49 31.68 C 551.50 42.79 551.51 53.91 551.50 65.02 C 551.68 67.92 550.23 71.44 547.02 71.85 C 541.01 72.25 534.96 71.88 528.94 71.99 C 528.91 70.27 528.88 68.55 528.87 66.84 C 530.29 65.19 532.01 63.48 531.66 61.09 C 531.36 51.44 532.29 41.71 531.01 32.11 Z"
     id="path3253" />
  <path
     fill="#69665f"
     d=" M 538.66 32.06 C 540.21 32.17 541.77 32.17 543.33 32.06 C 544.85 37.93 544.15 44.01 544.24 50.00 C 544.14 54.64 544.69 59.34 543.89 63.94 C 543.43 66.33 540.44 66.04 538.69 65.44 C 536.92 61.94 537.83 57.80 537.64 54.02 C 538.00 46.70 536.73 39.24 538.66 32.06 Z"
     id="path3255" />
  <path
     fill="#a8b2b6"
     d=" M 449.22 34.24 C 451.69 32.75 455.59 33.35 456.99 36.11 C 459.04 39.74 455.07 44.81 451.00 43.34 C 447.07 42.43 445.70 36.51 449.22 34.24 Z"
     id="path3261" />
  <path
     fill="#3a3939"
     d=" M 604.90 37.82 C 606.34 36.30 607.81 34.80 609.29 33.32 C 612.58 36.28 615.09 40.43 614.52 45.03 C 614.16 52.59 606.79 56.55 602.38 61.75 C 601.76 59.20 601.45 56.58 601.35 53.96 C 604.11 51.01 608.26 48.50 608.53 44.04 C 608.41 41.47 606.69 39.48 604.90 37.82 Z"
     id="path3263" />
  <path
     fill="#3a3939"
     d=" M 285.40 38.52 C 289.41 36.51 294.54 40.57 293.27 44.96 C 292.70 49.18 286.83 50.97 283.86 48.02 C 280.70 45.52 281.60 39.89 285.40 38.52 Z"
     id="path3265" />
  <path
     fill="#828c90"
     d=" M 422.05 38.23 C 427.24 38.04 432.43 38.04 437.62 38.30 C 437.96 39.24 438.30 40.19 438.66 41.13 C 440.24 47.16 445.54 52.22 451.98 52.25 C 459.68 52.64 466.38 45.73 466.18 38.10 C 472.00 38.17 477.81 38.21 483.63 38.11 C 483.47 40.49 483.38 42.86 483.32 45.24 C 480.66 46.84 477.51 46.57 474.55 46.62 C 474.13 47.98 473.71 49.34 473.32 50.71 C 475.37 52.75 478.36 54.93 477.31 58.27 C 475.98 60.81 473.58 62.56 471.69 64.66 C 470.59 64.65 469.49 64.64 468.40 64.64 C 466.98 63.20 465.56 61.76 464.16 60.31 C 462.44 61.11 460.12 61.30 458.96 62.95 C 458.47 65.52 458.24 68.14 457.52 70.67 C 454.13 70.59 450.73 70.84 447.35 70.48 C 445.73 68.07 446.30 64.62 445.58 61.81 C 443.92 61.52 442.30 61.08 440.74 60.46 C 439.29 61.83 437.87 63.23 436.50 64.68 C 432.30 65.58 429.54 61.77 427.61 58.67 C 426.07 55.03 429.67 52.64 431.60 50.14 C 431.09 48.99 430.58 47.83 430.08 46.68 C 427.54 46.55 424.99 46.45 422.45 46.34 C 422.39 45.78 422.26 44.65 422.20 44.08 C 422.15 42.13 422.10 40.18 422.05 38.23 Z"
     id="path3269" />
  <path
     fill="#656161"
     d=" M 576.98 53.93 C 577.61 46.79 584.61 43.09 588.76 38.04 C 589.10 40.50 589.54 42.95 590.20 45.35 C 587.90 47.96 584.83 50.04 583.38 53.28 C 581.20 58.65 587.88 64.73 592.99 61.78 C 596.24 59.75 598.61 56.60 601.35 53.96 C 601.45 56.58 601.76 59.20 602.38 61.75 C 599.21 65.32 595.20 68.98 590.05 68.55 C 582.40 69.00 575.80 61.44 576.98 53.93 Z"
     id="path3271" />
  <path
     fill="#a19f9d"
     d=" M 39.84 44.12 C 42.18 42.96 44.41 41.56 46.49 39.97 C 47.23 41.21 47.99 42.45 48.74 43.69 C 45.51 43.91 42.57 45.61 41.52 48.79 C 40.99 47.22 40.42 45.67 39.84 44.12 Z"
     id="path3273" />
  <path
     fill="#ffffff"
     d=" M 184.24 41.01 C 191.77 41.00 199.29 40.99 206.82 41.01 C 214.13 40.99 221.44 41.00 228.76 41.00 C 228.75 50.84 228.76 60.67 228.75 70.50 C 213.92 70.50 199.08 70.50 184.25 70.50 C 184.25 67.90 184.24 65.30 184.24 62.69 C 184.25 55.46 184.25 48.23 184.24 41.01 Z"
     id="path3275" />
  <path
     fill="#785f32"
     d=" M 41.52 48.79 C 42.57 45.61 45.51 43.91 48.74 43.69 C 50.41 43.91 51.99 44.75 52.72 46.33 C 56.47 52.98 60.33 59.57 63.99 66.27 C 63.23 69.95 60.01 72.99 56.09 72.64 C 53.01 72.74 51.93 69.55 50.60 67.41 C 47.44 61.55 43.89 55.92 40.90 49.99 L 41.52 48.79 Z"
     id="path3277" />
  <path
     fill="#ef434f"
     d=" M 188.33 47.41 C 192.25 47.01 196.21 47.33 200.15 47.26 C 199.02 48.42 197.88 49.58 196.75 50.75 C 193.94 50.73 191.10 50.93 188.30 50.58 C 186.82 49.97 186.86 48.00 188.33 47.41 Z"
     id="path3279" />
  <path
     fill="#ed1d43"
     d=" M 200.15 47.26 C 207.77 47.30 215.40 47.14 223.02 47.31 C 224.57 47.25 225.36 48.55 224.87 49.98 C 223.49 51.02 221.68 50.69 220.08 50.78 C 212.30 50.72 204.53 50.76 196.75 50.75 C 197.88 49.58 199.02 48.42 200.15 47.26 Z"
     id="path3281" />
  <path
     fill="#ebb86e"
     d=" M 143.82 53.84 C 143.58 49.65 147.84 48.07 151.12 49.93 C 151.93 53.31 152.65 56.72 153.17 60.16 C 150.03 63.61 146.95 67.12 143.86 70.63 C 140.51 69.81 136.45 70.58 133.65 68.30 C 132.79 65.51 134.18 63.11 136.18 61.29 C 137.40 61.82 138.61 62.36 139.82 62.92 C 139.12 60.89 137.59 58.41 139.52 56.56 C 141.19 54.06 144.09 55.84 146.06 56.87 C 145.29 55.88 144.53 54.87 143.82 53.84 Z"
     id="path3283" />
  <path
     fill="#ed1d43"
     d=" M 187.50 54.32 C 199.34 53.70 211.21 54.09 223.05 54.04 C 225.63 53.54 225.68 57.80 223.07 57.20 C 213.37 57.36 203.66 57.16 193.96 57.28 C 191.71 57.34 189.46 57.14 187.25 56.75 C 187.31 56.14 187.44 54.93 187.50 54.32 Z"
     id="path3285" />
  <path
     fill="#333332"
     d=" M 153.17 60.16 L 153.30 60.02 C 154.08 64.11 154.97 68.19 155.79 72.28 C 151.81 71.75 147.84 71.17 143.86 70.63 C 146.95 67.12 150.03 63.61 153.17 60.16 Z"
     id="path3287" />
  <path
     fill="#ed1d43"
     d=" M 188.99 63.46 C 186.52 64.05 186.73 59.76 189.02 60.32 C 200.32 60.17 211.63 60.26 222.93 60.28 C 224.66 60.04 225.04 61.98 225.19 63.25 C 213.14 63.77 201.05 63.42 188.99 63.46 Z"
     id="path3289" />
  <path
     fill="#000000"
     d=" M 212.30 94.31 C 213.42 93.01 215.40 93.95 216.88 93.82 C 219.76 94.14 222.69 94.19 225.54 94.77 C 227.97 95.43 227.48 99.71 224.92 99.68 C 220.94 99.53 216.95 99.19 213.02 98.59 C 211.24 98.09 210.83 95.36 212.30 94.31 Z"
     id="path3291" />
  <path
     d="M 762.21875 121.1875 C 754.03389 121.43163 746.20312 126.41797 742.5 133.71875 C 739.0375 140.21875 739.25 148.23125 742.125 154.90625 C 736.5875 160.54375 730.8875 166.025 725.375 171.6875 C 719.9375 177.25 729.45 187.3875 735.5 183 C 741.45 177.3625 747.0625 171.3375 753 165.6875 C 762.7 170.2375 775.2875 167.625 781.75 158.875 C 787.8 151.35 788.26875 139.925 782.96875 131.875 C 778.85625 125.4875 771.5375 121.20625 763.875 121.21875 C 763.32734 121.19219 762.76441 121.17122 762.21875 121.1875 z M 762.5625 131.15625 C 770.28831 130.7478 777.79062 138.22656 776.5 146.15625 C 775.725 153.83125 767.475 159.6125 760 157.5 C 753.4875 155.9375 748.7625 149.025 750.125 142.375 C 750.85 137.4875 754.56875 133.28125 759.28125 131.84375 C 760.37031 131.44219 761.45881 131.2146 762.5625 131.15625 z "
     transform="scale(0.8,0.8)"
     id="path3293" />
  <path
     fill="#000000"
     d=" M 428.62 108.37 C 423.97 103.26 432.11 94.68 437.56 98.28 C 442.58 103.02 447.32 108.05 452.25 112.87 C 457.32 108.04 461.96 102.73 467.27 98.18 C 471.26 95.75 475.68 99.35 477.29 102.98 C 478.23 105.56 476.68 108.05 474.86 109.77 C 470.58 114.02 466.37 118.34 462.01 122.51 C 466.60 127.41 471.53 131.99 476.17 136.84 C 480.87 142.03 471.88 150.86 466.66 146.36 C 461.73 141.84 457.16 136.92 452.38 132.24 C 447.74 137.00 442.81 141.45 438.17 146.20 C 432.98 151.07 423.72 141.99 428.60 136.66 C 433.13 131.82 437.94 127.25 442.62 122.55 C 438.04 117.74 433.14 113.24 428.62 108.37 Z"
     id="path3295" />
  <path
     fill="#000000"
     d=" M 535.29 105.10 C 537.86 102.61 540.23 99.89 542.97 97.56 C 545.15 96.82 546.31 99.18 547.74 100.33 C 549.69 102.60 552.48 104.32 553.67 107.13 C 551.64 110.43 548.33 112.75 545.75 115.62 C 542.26 112.11 538.73 108.65 535.29 105.10 Z"
     id="path3297" />
  <path
     fill="#000000"
     d=" M 745.81 106.67 C 747.97 102.74 751.42 99.18 756.04 98.41 C 760.28 97.32 764.60 98.80 768.15 101.12 C 772.67 100.87 776.83 103.00 779.75 106.36 C 782.93 107.51 786.59 108.22 788.82 111.09 C 793.52 116.19 792.82 125.12 787.26 129.33 C 782.54 133.46 775.92 131.61 770.25 131.99 C 770.24 130.33 770.24 128.66 770.25 127.00 C 773.82 126.89 777.43 127.30 780.98 126.72 C 785.41 125.71 788.29 120.21 785.92 116.14 C 784.36 112.69 780.37 111.75 776.93 111.84 C 775.66 110.19 774.58 108.27 772.72 107.22 C 770.16 105.80 766.82 107.45 764.59 105.28 C 761.79 102.97 757.68 102.59 754.60 104.56 C 751.67 106.00 750.77 109.31 749.28 111.94 C 743.47 110.73 737.32 116.87 740.27 122.56 C 743.11 128.62 750.64 126.74 756.00 126.99 C 755.99 128.66 755.99 130.33 756.00 132.00 C 750.46 131.61 744.11 133.36 739.37 129.61 C 733.46 125.42 732.70 115.92 737.79 110.79 C 739.84 108.43 742.86 107.38 745.81 106.67 Z"
     id="path3299" />
  <path
     d="M 24.9375 123.90625 C 22.159888 123.88762 19.9125 127.29844 21.53125 129.78125 C 23.30625 132.24375 25.51875 134.35 27.59375 136.5625 C 25.83125 139.8125 25.03125 144.14375 27.84375 147.09375 C 31.35625 151.55625 39.5 149.43125 40.25 143.71875 C 41.45 139.04375 37.575 135.675 34.6875 132.6875 C 31.775 129.9 29.36875 126.575 26.15625 124.125 C 25.748437 123.96875 25.334302 123.90891 24.9375 123.90625 z M 75.6875 123.96875 C 74.933398 123.9459 74.175 124.18125 73.53125 124.71875 C 69.64375 128.35625 66.1625 132.41875 62.4375 136.21875 C 59.825 138.69375 59.19375 143.0125 61.15625 146.0625 C 63.40625 150.3375 70.24375 150.6625 72.96875 146.6875 C 75.46875 143.675 74.325 139.6 72.8125 136.4375 C 75 133.9375 78.1875 131.975 79.3125 128.75 C 80.184375 126.30312 77.949805 124.0373 75.6875 123.96875 z M 49.21875 155.71875 C 46.316016 155.75369 43.390625 156.21094 40.625 157.125 C 32.55 159.825 26.0125 166.13125 22.3125 173.71875 C 21.35 175.88125 19.74375 178.1625 20.53125 180.625 C 27.38125 181.55 34.3 181.1875 41.1875 181.25 C 53.625 181.05 66.11875 181.64375 78.53125 180.96875 L 79.125 178.90625 C 76.5625 170.64375 70.9125 163.16875 63.1875 159.09375 C 58.90625 156.8125 54.056641 155.66052 49.21875 155.71875 z M 47.1875 159.71875 C 50.875 159.65625 54.525 160.13125 58.125 160.90625 L 58.125 167.8125 L 47.1875 167.8125 L 47.1875 159.71875 z M 43.0625 160.375 C 43.1 162.85 43.125 165.3375 43.125 167.8125 C 39.3375 167.8125 35.5375 167.8375 31.75 167.75 C 33.1125 162.8625 39.0625 162.175 43.0625 160.375 z M 62.59375 162.5 C 65.16875 164.1 67.65 165.8375 70 167.75 C 67.4875 167.8 64.95 167.8125 62.4375 167.8125 C 62.4875 166.05 62.53125 164.2625 62.59375 162.5 z M 27.71875 171.34375 C 27.80625 173.44375 27.825 175.55625 27.8125 177.65625 C 26.775 177.49375 24.675 177.1625 23.625 177 C 24.3875 174.725 25.49375 172.49375 27.71875 171.34375 z M 32.1875 171.875 L 43.125 171.875 L 43.125 177.5 L 32.1875 177.5 L 32.1875 171.875 z M 47.1875 171.875 L 58.125 171.875 L 58.125 177.5 L 47.1875 177.5 L 47.1875 171.875 z M 62.5 171.875 L 73.125 171.875 L 73.125 177.5 L 62.5 177.5 L 62.5 171.875 z "
     transform="scale(0.8,0.8)"
     id="path3301" />
  <path
     fill="#000000"
     d=" M 272.36 99.58 C 277.20 97.93 282.27 103.45 280.00 108.10 C 278.55 112.17 272.72 113.33 269.77 110.21 C 266.26 107.17 267.81 100.65 272.36 99.58 Z"
     id="path3305" />
  <path
     fill="#000000"
     d=" M 302.39 99.57 C 306.32 98.37 310.85 101.85 310.29 106.04 C 310.32 110.90 304.00 113.85 300.26 110.79 C 296.05 108.00 297.30 100.52 302.39 99.57 Z"
     id="path3307" />
  <path
     fill="#000000"
     d=" M 381.47 102.39 C 383.65 98.31 390.24 98.45 392.46 102.39 C 393.83 104.42 393.11 106.91 392.80 109.13 C 390.90 108.24 389.13 106.89 386.98 106.67 C 384.80 106.75 383.18 108.29 381.54 109.52 C 380.73 107.21 379.95 104.61 381.47 102.39 Z"
     id="path3309" />
  <path
     fill="#000000"
     d=" M 353.70 101.65 C 356.20 98.39 361.82 98.68 364.02 102.12 C 365.59 104.28 365.00 107.07 364.18 109.39 C 362.32 108.12 360.34 106.23 357.89 106.83 C 356.03 107.10 354.67 108.52 353.20 109.55 C 352.21 107.02 351.68 103.84 353.70 101.65 Z"
     id="path3311" />
  <path
     fill="#000000"
     d=" M 183.29 107.31 C 186.73 105.20 190.19 103.05 193.89 101.43 C 196.43 101.40 196.62 103.94 196.39 105.85 C 192.54 107.79 189.04 110.44 185.02 112.01 C 182.54 112.42 181.10 108.57 183.29 107.31 Z"
     id="path3313" />
  <path
     fill="#000000"
     d=" M 97.43 104.44 C 99.20 103.73 100.70 105.62 102.27 106.16 C 104.72 107.51 106.89 104.92 109.12 104.23 C 111.92 103.89 113.69 107.67 111.73 109.67 C 107.73 113.44 100.92 114.12 96.74 110.27 C 94.52 108.94 94.87 105.13 97.43 104.44 Z"
     id="path3315" />
  <path
     fill="#000000"
     d=" M 138.41 104.58 C 140.81 103.34 142.74 106.21 144.99 106.66 C 146.86 106.23 148.44 105.08 150.18 104.33 C 152.77 103.48 155.14 107.09 153.39 109.15 C 149.32 113.97 140.77 114.13 136.89 108.95 C 136.49 107.35 136.59 105.22 138.41 104.58 Z"
     id="path3317" />
  <path
     fill="#000000"
     d=" M 660.38 107.02 C 662.13 102.56 670.07 103.02 670.98 107.86 C 672.25 112.58 669.53 119.68 663.56 118.27 C 664.44 118.91 665.32 119.55 666.22 120.19 L 666.11 118.79 C 667.35 118.73 668.58 118.70 669.83 118.72 C 671.18 119.68 672.54 120.62 673.85 121.65 C 675.73 120.32 677.73 119.19 679.70 117.98 C 676.91 115.15 676.04 110.82 677.13 107.07 C 678.74 102.86 685.78 102.92 687.50 107.02 C 688.63 110.76 687.69 115.10 684.94 117.93 C 686.89 119.09 688.90 120.21 690.59 121.76 C 692.40 120.29 694.46 119.17 696.48 118.00 C 693.71 115.13 692.72 110.74 693.93 106.98 C 695.64 102.67 703.15 102.96 704.39 107.51 C 705.29 111.14 704.39 115.32 701.59 117.91 C 703.33 118.97 705.23 119.82 706.79 121.17 C 708.63 127.46 709.81 133.93 711.58 140.25 C 707.80 140.25 704.02 140.25 700.24 140.26 C 699.80 135.13 699.50 129.98 699.19 124.84 C 698.42 129.94 698.35 135.12 697.93 140.26 C 693.11 140.24 688.29 140.25 683.48 140.26 C 683.00 135.07 682.76 129.86 682.57 124.65 C 681.72 129.81 681.56 135.04 681.18 140.25 C 676.36 140.25 671.54 140.25 666.72 140.25 C 666.29 135.04 666.03 129.82 665.45 124.63 C 665.04 129.83 664.81 135.05 664.43 140.25 C 660.64 140.25 656.86 140.26 653.08 140.23 C 654.67 133.82 656.24 127.42 657.73 120.99 C 659.49 120.02 661.24 119.05 662.96 117.99 C 660.17 115.14 659.24 110.79 660.38 107.02 Z"
     id="path3319" />
  <path
     fill="#000000"
     d=" M 504.92 135.40 C 514.71 125.76 524.35 115.97 534.10 106.28 C 537.65 109.73 541.12 113.26 544.62 116.76 C 535.13 126.23 525.67 135.74 516.16 145.20 C 514.77 146.74 512.51 146.31 510.67 146.64 C 508.56 144.38 506.35 142.22 504.17 140.03 C 504.41 138.49 504.66 136.94 504.92 135.40 Z"
     id="path3323" />
  <path
     fill="#000000"
     d=" M 217.57 109.69 C 220.19 108.24 223.86 110.04 224.17 113.06 C 224.98 116.67 220.37 119.62 217.36 117.57 C 214.37 115.96 214.57 111.20 217.57 109.69 Z"
     id="path3325" />
  <path
     fill="#000000"
     d=" M 191.16 110.03 C 193.74 108.16 197.77 109.79 198.19 112.97 C 198.98 116.26 195.15 119.40 192.07 117.93 C 188.78 116.82 188.28 111.89 191.16 110.03 Z"
     id="path3327" />
  <path
     fill="#d1d1d2"
     d=" M 680.50 118.70 C 680.68 117.32 682.86 117.36 683.72 118.11 C 684.62 120.20 680.91 120.58 680.50 118.70 Z"
     id="path3329" />
  <path
     fill="#d1d1d2"
     d=" M 697.34 118.73 C 697.57 117.34 699.75 117.38 700.64 118.13 C 701.47 120.11 697.71 120.58 697.34 118.73 Z"
     id="path3331" />
  <path
     fill="#000000"
     d=" M 758.85 118.03 C 761.67 118.00 764.50 118.01 767.34 117.94 C 769.26 123.39 767.79 129.38 768.26 135.05 C 769.72 135.09 773.26 135.65 771.45 137.81 C 769.09 140.62 767.02 143.84 764.03 146.00 C 763.53 145.99 762.54 145.98 762.04 145.97 C 759.07 143.35 756.68 140.12 754.25 137.01 C 754.56 135.06 756.50 135.31 758.00 135.08 C 758.44 129.43 757.02 123.47 758.85 118.03 Z"
     id="path3333" />
  <path
     fill="#000000"
     d=" M 265.33 127.49 C 266.45 126.38 268.51 126.20 269.66 127.39 C 271.01 129.39 271.94 131.67 273.60 133.46 C 279.32 139.52 289.14 141.25 296.51 137.28 C 300.48 135.48 303.21 131.95 305.19 128.19 C 306.39 125.21 311.46 126.95 310.92 130.03 C 308.99 136.21 303.80 141.08 297.94 143.59 C 286.84 148.43 272.29 144.56 266.10 133.88 C 265.06 132.06 263.40 129.25 265.33 127.49 Z"
     id="path3337" />
  <path
     fill="#000000"
     d=" M 348.63 132.72 C 347.84 131.13 345.24 128.15 347.99 127.16 C 353.97 126.60 359.97 127.48 365.97 127.26 C 376.99 127.41 388.05 126.92 399.06 127.51 C 398.01 133.03 393.86 137.35 389.50 140.58 C 376.81 149.57 356.74 146.34 348.63 132.72 Z"
     id="path3339" />
  <path
     fill="#000000"
     d=" M 201.52 132.80 C 212.95 130.11 226.13 136.00 230.56 147.11 C 232.27 150.48 226.51 153.16 225.04 149.92 C 223.23 146.53 220.90 143.31 217.53 141.34 C 210.04 136.65 199.36 137.83 193.26 144.30 C 191.28 146.16 190.39 148.81 188.77 150.94 C 186.50 152.18 183.43 150.74 183.68 147.97 C 186.29 140.18 193.59 134.47 201.52 132.80 Z"
     id="path3347" />
  <path
     fill="#000000"
     d=" M 110.92 138.06 C 119.31 137.94 127.70 138.01 136.08 138.00 C 140.63 137.03 140.39 146.16 135.99 145.23 C 127.98 145.21 119.95 145.39 111.95 145.14 C 109.05 144.12 109.87 140.24 110.92 138.06 Z"
     id="path3357" />
  <path
     fill="#000000"
     d=" M 504.04 141.75 C 505.81 143.42 507.54 145.14 509.25 146.89 C 507.25 147.15 505.25 147.41 503.26 147.68 C 503.50 145.70 503.75 143.72 504.04 141.75 Z"
     id="path3359" />
</svg>
