<?xml version="1.0" encoding="UTF-8"?>
<svg width="404px" height="155px" viewBox="0 0 404 155" version="1.1" xmlns="http://www.w3.org/2000/svg" xmlns:xlink="http://www.w3.org/1999/xlink">
    <!-- Generator: Sketch 43.2 (39069) - http://www.bohemiancoding.com/sketch -->
    <title>logobranca</title>
    <desc>Created with Sketch.</desc>
    <defs></defs>
    <g id="Page-1" stroke="none" stroke-width="1" fill="none" fill-rule="evenodd">
        <g id="logobranca">
            <g id="Group" transform="translate(170.000000, 23.000000)" fill-rule="nonzero" fill="#FFFFFF">
                <polygon id="Shape" points="1.9 0.4 14.7 0.4 14.7 35.2 37 35.2 37 46.4 2 46.4 2 0.4"></polygon>
                <path d="M58.3,0.1 L70.6,0.1 L90.2,46.4 L76.5,46.4 L73.1,38.2 L55.4,38.2 L52.1,46.4 L38.7,46.4 L58.3,0.1 Z M69.4,28.3 L64.3,15.2 L59.1,28.3 L69.4,28.3 Z" id="Shape"></path>
                <path d="M94.6,0.4 L118.2,0.4 C124,0.4 128.1,1.8 130.8,4.5 C132.6,6.3 133.8,8.8 133.8,11.9 L133.8,12 C133.8,17.3 130.8,20.5 126.7,22.3 C132.3,24.1 135.8,27.3 135.8,33.5 L135.8,33.6 C135.8,41.5 129.4,46.3 118.4,46.3 L94.7,46.3 L94.7,0.4 L94.6,0.4 Z M115.1,18.8 C119,18.8 121.1,17.5 121.1,14.8 L121.1,14.7 C121.1,12.2 119.1,10.8 115.3,10.8 L107,10.8 L107,18.9 L115.1,18.9 L115.1,18.8 Z M116.9,36.2 C120.8,36.2 123,34.7 123,32 L123,31.9 C123,29.4 121,27.8 116.8,27.8 L107,27.8 L107,36.3 L116.9,36.3 L116.9,36.2 Z" id="Shape"></path>
                <path d="M0.3,80.6 L0.3,80.5 C0.3,67.1 10.6,56.6 24.6,56.6 C34,56.6 40,60.5 44.1,66.2 L34.5,73.6 C31.9,70.3 28.8,68.2 24.4,68.2 C18,68.2 13.4,73.7 13.4,80.4 L13.4,80.5 C13.4,87.4 17.9,92.8 24.4,92.8 C29.2,92.8 32,90.6 34.8,87.2 L44.4,94 C40.1,100 34.2,104.4 24,104.4 C10.9,104.4 0.3,94.3 0.3,80.6 Z" id="Shape"></path>
                <path d="M46.9,80.6 L46.9,80.5 C46.9,67.3 57.5,56.6 71.7,56.6 C85.9,56.6 96.4,67.2 96.4,80.4 L96.4,80.5 C96.4,93.7 85.8,104.4 71.6,104.4 C57.5,104.4 46.9,93.8 46.9,80.6 Z M83.5,80.6 L83.5,80.5 C83.5,73.9 78.7,68.1 71.7,68.1 C64.7,68.1 60.1,73.8 60.1,80.4 L60.1,80.5 C60.1,87.1 64.9,92.9 71.9,92.9 C78.8,92.9 83.5,87.2 83.5,80.6 Z" id="Shape"></path>
                <path d="M103.2,57.4 L120.9,57.4 C137.3,57.4 146.9,66.9 146.9,80.1 L146.9,80.2 C146.9,93.5 137.2,103.3 120.7,103.3 L103.2,103.3 L103.2,57.4 Z M121.1,92.1 C128.7,92.1 133.8,87.9 133.8,80.5 L133.8,80.4 C133.8,73 128.7,68.8 121.1,68.8 L115.9,68.8 L115.9,92.2 L121.1,92.2 L121.1,92.1 Z" id="Shape"></path>
                <polygon id="Shape" points="153.4 57.4 190.4 57.4 190.4 68.2 166 68.2 166 75.2 188.1 75.2 188.1 85.3 166 85.3 166 92.6 190.7 92.6 190.7 103.4 153.4 103.4"></polygon>
                <path d="M193.8,96.6 L200.9,88.1 C205.4,91.7 210.5,93.6 215.8,93.6 C219.2,93.6 221.1,92.4 221.1,90.4 L221.1,90.3 C221.1,88.4 219.6,87.3 213.3,85.9 C203.5,83.7 195.9,80.9 195.9,71.4 L195.9,71.3 C195.9,62.8 202.7,56.6 213.7,56.6 C221.5,56.6 227.6,58.7 232.6,62.7 L226.2,71.7 C222,68.7 217.4,67.2 213.3,67.2 C210.2,67.2 208.7,68.5 208.7,70.2 L208.7,70.3 C208.7,72.4 210.3,73.3 216.7,74.8 C227.3,77.1 233.9,80.5 233.9,89.1 L233.9,89.2 C233.9,98.6 226.5,104.2 215.3,104.2 C207.2,104.2 199.5,101.7 193.8,96.6 Z" id="Shape"></path>
            </g>
            <g id="Group">
                <path d="M112.1,34.1 L107.6,32.4 L112.1,34.1 C112.5,34.2 112.9,34.3 113.4,34.2 C112.9,34.3 112.5,34.3 112.1,34.1 Z" id="Shape"></path>
                <polygon id="Shape" points="104.3 38.8 104.7 37.8"></polygon>
                <path d="M114.7,33.2 C114.8,33.1 114.8,32.9 114.9,32.8 L117.3,26.1 L114.9,32.8 C114.9,32.9 114.8,33.1 114.7,33.2 Z" id="Shape"></path>
                <path d="M93.5,22.5 L111.5,29.2 L114.5,21 L71.7,5.1 L68.7,13.3 L73.2,15 C74.4,15.4 74.9,16.7 74.5,17.9 L33.1,129.3 C31.7,133.1 31.8,137.3 33.5,141 C35.2,144.7 38.2,147.5 42,148.9 C44,149.7 45.8,150 47.6,150 C53.9,150 59.7,146 61.9,140.1 L102.5,30.6 L91.8,26.6 C90.7,26.2 90.1,24.9 90.5,23.7 C91.1,22.7 92.3,22.1 93.5,22.5 Z M83,26.8 C84.6,26.8 85.8,28.1 85.8,29.6 C85.8,31.2 84.5,32.4 83,32.4 C81.4,32.4 80.2,31.1 80.2,29.6 C80.2,28 81.4,26.8 83,26.8 Z M74.2,49.2 C77.5,49.2 80.1,51.9 80.1,55.1 C80.1,58.4 77.4,61 74.2,61 C70.9,61 68.3,58.3 68.3,55.1 C68.3,51.8 71,49.2 74.2,49.2 Z M91.5,44.1 C91.5,46.3 89.7,48.1 87.5,48.1 C85.3,48.1 83.5,46.3 83.5,44.1 C83.5,41.9 85.3,40.1 87.5,40.1 C89.7,40.1 91.5,41.9 91.5,44.1 Z" id="Shape" fill="#FFFFFF" fill-rule="nonzero"></path>
                <g transform="translate(0.000000, 24.000000)" id="Shape" fill-rule="nonzero" fill="#FFFFFF">
                    <path d="M117.8,1 L117.8,1 L117.4,2.2 L115,8.9 C114.9,9 114.9,9.2 114.8,9.3 C114.6,9.7 114.2,10 113.8,10.2 C113.7,10.3 113.5,10.3 113.4,10.3 C113,10.4 112.5,10.4 112.1,10.2 L107.6,8.5 L106.8,8.2 L104.7,13.8 L104.3,14.9 L104.3,14.9 L125.3,51.2 L95.8,102 L117.3,102 L146.8,51.1 L117.8,1 Z"></path>
                    <polygon points="29.5 0.2 0 51.1 29.5 102 29.6 102 38 79.5 21.5 51.1 51 0.2"></polygon>
                </g>
                <path d="M118.1,17.6 L71.1,0.2 C70.6,-0.1 70,0 69.4,0.2 C68.9,0.4 68.4,0.9 68.2,1.5 L63.7,13.9 C63.3,15 63.9,16.3 65,16.7 L69.5,18.4 L38,103.5 L29.6,126 L28.9,127.8 C27.1,132.7 27.3,138.1 29.5,142.8 C31.7,147.6 35.6,151.2 40.9,153.2 C43.1,154 45.4,154.4 47.7,154.4 C55.9,154.4 63.3,149.2 66.1,141.6 L106.7,32.1 L112,34.1 C112.4,34.2 112.8,34.3 113.3,34.2 C113.5,34.2 113.6,34.1 113.7,34.1 C114.1,33.9 114.5,33.6 114.7,33.2 C115.1,32.5 119.4,20.4 119.4,20.4 C119.8,19.3 119.3,18 118.1,17.6 Z M80.9,89 L62,140 C59.8,146 54,150 47.7,150 C45.9,150 44.1,149.7 42.1,148.9 C38.3,147.5 35.3,144.7 33.6,141 C31.9,137.3 31.8,133.2 33.2,129.3 L34.4,125.9 L74.5,17.8 C74.9,16.7 74.3,15.4 73.2,14.9 L68.7,13.2 L71.7,5 L114.5,21 L111.5,29.2 L93.5,22.5 C92.4,22.1 91.1,22.7 90.6,23.8 C90.2,24.9 90.8,26.2 91.9,26.7 L102.6,30.7 L82.5,84.9 L80.9,89 Z" id="Shape" fill="#1F1E20" fill-rule="nonzero"></path>
                <g transform="translate(35.000000, 26.000000)" fill-rule="nonzero" fill="#00A7AC">
                    <path d="M47.6,45 C44.1,45.7 40.3,43.4 36.3,41.8 C32.9,40.4 29.3,39.6 25.8,41.6 C24.5,42.4 23.5,43.6 23,45 L1,103.6 C-0.2,106.7 -1.49880108e-15,110.1 1.4,113.2 C2.8,116.3 5.4,118.6 8.8,119.9 C10.2,120.4 11.7,120.7 13.1,120.7 C18.3,120.7 23,117.4 24.8,112.5 L49.4,47 C49.8,45.9 48.8,44.8 47.6,45 Z" id="Shape"></path>
                    <circle id="Oval" cx="39.2" cy="29.1" r="5.9"></circle>
                    <circle id="Oval" cx="52.5" cy="18.1" r="4"></circle>
                    <circle id="Oval" cx="48" cy="3.6" r="2.8"></circle>
                </g>
            </g>
        </g>
    </g>
</svg>