<?xml version="1.0" encoding="utf-8"?>
<!-- Generator: Adobe Illustrator 15.0.0, SVG Export Plug-In . SVG Version: 6.00 Build 0)  -->
<!DOCTYPE svg PUBLIC "-//W3C//DTD SVG 1.1//EN" "http://www.w3.org/Graphics/SVG/1.1/DTD/svg11.dtd">
<svg version="1.1" id="Capa_1" xmlns="http://www.w3.org/2000/svg" xmlns:xlink="http://www.w3.org/1999/xlink" x="0px" y="0px"
	 width="64px" height="64px" viewBox="0 0 64 64" enable-background="new 0 0 64 64" xml:space="preserve">
<g>
	<path fill="#FFFFFF" d="M32,34.974c-1.039,0-1.881-0.841-1.882-1.88L30.084,1.884C30.083,0.845,30.925,0.001,31.965,0
		c0.001,0,0.001,0,0.002,0c1.039,0,1.881,0.841,1.883,1.88l0.033,31.209c0,1.039-0.842,1.883-1.881,1.884
		C32.001,34.974,32.001,34.974,32,34.974z"/>
	<path fill="#FFFFFF" d="M32,64C16.693,64,4.24,51.547,4.24,36.24c0-12.116,7.746-22.74,19.274-26.438
		c0.992-0.319,2.05,0.229,2.367,1.218c0.317,0.989-0.228,2.049-1.218,2.367C14.7,16.583,8.005,25.767,8.005,36.24
		c0,13.231,10.764,23.995,23.995,23.995S55.995,49.472,55.995,36.24c0-10.474-6.695-19.658-16.659-22.854
		c-0.99-0.318-1.535-1.377-1.217-2.367c0.316-0.99,1.376-1.536,2.366-1.218C52.014,13.5,59.76,24.125,59.76,36.24
		C59.76,51.547,47.307,64,32,64z"/>
</g>
</svg>
