<?xml version="1.0" encoding="utf-8"?>
<!-- Generator: Adobe Illustrator 15.0.0, SVG Export Plug-In . SVG Version: 6.00 Build 0)  -->
<!DOCTYPE svg PUBLIC "-//W3C//DTD SVG 1.1//EN" "http://www.w3.org/Graphics/SVG/1.1/DTD/svg11.dtd">
<svg version="1.1" id="Capa_1" xmlns="http://www.w3.org/2000/svg" xmlns:xlink="http://www.w3.org/1999/xlink" x="0px" y="0px"
	 width="64px" height="64px" viewBox="0 0 64 64" enable-background="new 0 0 64 64" xml:space="preserve">
<g>
	<path fill="#FFFFFF" d="M50,61h-1v-8.922c0-2.242-0.682-4.4-1.973-6.241L36.709,31.118l10.32-14.836C48.318,14.429,49,12.257,49,10
		V4h1c0.553,0,1-0.448,1-1s-0.447-1-1-1H14c-0.552,0-1,0.448-1,1s0.448,1,1,1h1v6c0,2.257,0.681,4.429,1.97,6.282l10.321,14.836
		L16.972,45.837C15.682,47.678,15,49.836,15,52.078V61h-1c-0.552,0-1,0.447-1,1s0.448,1,1,1h36c0.553,0,1-0.447,1-1S50.553,61,50,61
		z M17,52.078c0-1.83,0.557-3.592,1.61-5.094l10.72-15.29c0.241-0.344,0.242-0.801,0.002-1.146l-10.72-15.41
		C17.558,13.624,17,11.847,17,10V4h30v6c0,1.847-0.559,3.624-1.611,5.14L34.668,30.55c-0.238,0.344-0.238,0.801,0.002,1.146
		l10.721,15.291c1.053,1.5,1.609,3.262,1.609,5.092V61H17V52.078z"/>
	<path fill="#FFFFFF" d="M32,30.164c0.344,0,0.664-0.177,0.846-0.466c0.223-0.333,4.312-6.225,7.023-10.127
		c0.213-0.306,0.236-0.704,0.064-1.034S39.42,18,39.049,18H24.952c-0.372,0-0.713,0.207-0.886,0.537s-0.147,0.728,0.065,1.034
		c2.711,3.902,6.802,9.794,7.023,10.127C31.336,29.987,31.656,30.164,32,30.164z M37.137,20c-2.863,4.12-4.354,6.272-5.137,7.402
		c-0.781-1.13-2.273-3.282-5.136-7.402H37.137z"/>
	<path fill="#FFFFFF" d="M39.051,41.426C38.863,41.159,38.559,41,38.23,41H25.769c-0.326,0-0.631,0.158-0.819,0.426l-4.702,6.707
		C19.431,49.297,19,50.661,19,52.078V58c0,0.553,0.448,1,1,1h22c0.553,0-0.016-1.969-0.016-2H21v-4.922
		c0-1.004,0.306-1.971,0.885-2.797L26.289,43h11.422l4.404,6.281C42.693,50.107,43,51.074,43,52.078V57h-1c-0.553,0-0.553,2,0,2h2
		c0.553,0,1-0.447,1-1v-5.922c0-1.417-0.432-2.781-1.247-3.945L39.051,41.426z"/>
</g>
</svg>
