<?xml version="1.0" encoding="utf-8"?>
<!-- Generator: Adobe Illustrator 15.0.0, SVG Export Plug-In . SVG Version: 6.00 Build 0)  -->
<!DOCTYPE svg PUBLIC "-//W3C//DTD SVG 1.1//EN" "http://www.w3.org/Graphics/SVG/1.1/DTD/svg11.dtd">
<svg version="1.1" id="Capa_1" xmlns="http://www.w3.org/2000/svg" xmlns:xlink="http://www.w3.org/1999/xlink" x="0px" y="0px"
	 width="64px" height="64px" viewBox="0 0 64 64" enable-background="new 0 0 64 64" xml:space="preserve">
<g>
	<g>
		<path fill="#FFFFFF" d="M55.891,34.525c-1.804-10.853-10.886-19.284-22.059-20.122l1.041-3.74
			c0.131-0.475,0.034-0.983-0.264-1.375s-0.762-0.622-1.254-0.622h-2.71c-0.492,0-0.956,0.23-1.254,0.622
			c-0.298,0.392-0.395,0.9-0.263,1.375l1.04,3.74C18.995,15.242,9.913,23.673,8.11,34.525C2.727,36.346,0,38.982,0,42.375
			c0,3.745,3.528,7.127,9.935,9.523c5.918,2.215,13.755,3.435,22.065,3.435s16.146-1.22,22.065-3.435
			C60.472,49.502,64,46.119,64,42.375C64,38.982,61.273,36.346,55.891,34.525z M10.934,38.49c0-0.86,0.052-1.707,0.153-2.541
			c0.003-0.021,0.006-0.043,0.008-0.064C12.386,25.526,21.269,17.483,32,17.483c10.729,0,19.609,8.039,20.904,18.394l0.161,3.318
			c-0.03,1.437-2.104,2.988-5.561,4.156C43.49,44.709,37.984,45.456,32,45.456c-5.984,0-11.49-0.747-15.505-2.104
			c-3.482-1.176-5.561-2.742-5.561-4.188L10.934,38.49L10.934,38.49z M32,52.184c-17.002,0-28.85-5.17-28.85-9.809
			c0-1.988,2.373-3.438,4.639-4.367c-0.003,0.16-0.005,0.32-0.005,0.482v0.673c0,2.085,1.336,5.021,7.702,7.173
			c4.332,1.464,10.196,2.27,16.514,2.27c6.317,0,12.182-0.806,16.514-2.27c6.365-2.15,7.702-5.088,7.702-7.173
			c0-0.025-0.001-0.052-0.002-0.077l-0.017-0.352c0.012-0.079,0.019-0.161,0.019-0.245c0-0.161-0.002-0.321-0.005-0.481
			c2.266,0.93,4.639,2.378,4.639,4.367C60.85,47.014,49.002,52.184,32,52.184z"/>
		<path fill="#FFFFFF" d="M15.721,32.943c0.201,0.086,0.409,0.126,0.614,0.126c0.613,0,1.196-0.36,1.451-0.96
			c1.777-4.19,5.275-7.416,9.598-8.851c0.825-0.274,1.272-1.166,0.999-1.991c-0.274-0.826-1.165-1.272-1.991-0.999
			c-5.181,1.72-9.375,5.587-11.505,10.61C14.547,31.68,14.92,32.604,15.721,32.943z"/>
	</g>
</g>
</svg>
