<?xml version="1.0" encoding="utf-8"?>
<!-- Generator: Adobe Illustrator 15.0.0, SVG Export Plug-In . SVG Version: 6.00 Build 0)  -->
<!DOCTYPE svg PUBLIC "-//W3C//DTD SVG 1.1//EN" "http://www.w3.org/Graphics/SVG/1.1/DTD/svg11.dtd">
<svg version="1.1" id="Capa_1" xmlns="http://www.w3.org/2000/svg" xmlns:xlink="http://www.w3.org/1999/xlink" x="0px" y="0px"
	 width="64px" height="64px" viewBox="0 0 64 64" enable-background="new 0 0 64 64" xml:space="preserve">
<g>
	<g>
		<path fill="#FFFFFF" d="M9.333,58.666c-0.172,0-0.345-0.033-0.511-0.102C8.324,58.359,8,57.873,8,57.334V48H4
			c-2.206,0-4-1.795-4-4V9.333c0-2.206,1.794-4,4-4h56c2.205,0,4,1.794,4,4V44c0,2.205-1.795,4-4,4H20.552L10.276,58.275
			C10.021,58.531,9.68,58.666,9.333,58.666z M4,8C3.264,8,2.667,8.598,2.667,9.333V44c0,0.734,0.598,1.334,1.333,1.334h5.333
			c0.737,0,1.333,0.596,1.333,1.333v7.448l8.391-8.391c0.25-0.25,0.589-0.391,0.943-0.391h40c0.734,0,1.334-0.6,1.334-1.334V9.333
			C61.334,8.598,60.734,8,60,8H4z"/>
		<path fill="#FFFFFF" d="M22.667,29.333c-1.47,0-2.667-1.197-2.667-2.667C20,25.197,21.196,24,22.667,24s2.667,1.196,2.667,2.667
			S24.137,29.333,22.667,29.333z"/>
		<path fill="#FFFFFF" d="M44,29.333c-1.471,0-2.667-1.197-2.667-2.667C41.333,25.197,42.528,24,44,24
			c1.471,0,2.666,1.196,2.666,2.667S45.471,29.333,44,29.333z"/>
		<path fill="#FFFFFF" d="M33.334,29.333c-1.471,0-2.667-1.197-2.667-2.667c0-1.47,1.197-2.667,2.667-2.667S36,25.196,36,26.667
			S34.805,29.333,33.334,29.333z"/>
	</g>
</g>
</svg>
