<?xml version="1.0" encoding="utf-8"?>
<!-- Generator: Adobe Illustrator 15.0.0, SVG Export Plug-In . SVG Version: 6.00 Build 0)  -->
<!DOCTYPE svg PUBLIC "-//W3C//DTD SVG 1.1//EN" "http://www.w3.org/Graphics/SVG/1.1/DTD/svg11.dtd">
<svg version="1.1" id="Capa_1" xmlns="http://www.w3.org/2000/svg" xmlns:xlink="http://www.w3.org/1999/xlink" x="0px" y="0px"
	 width="64px" height="64px" viewBox="0 0 64 64" enable-background="new 0 0 64 64" xml:space="preserve">
<path fill="#FFFFFF" d="M62.439,32.891l-1.062-2.522c-0.062-0.149-0.184-0.268-0.332-0.329c-0.148-0.061-0.316-0.06-0.469,0.002
	c-0.117,0.05-0.236,0.092-0.357,0.127c-0.453,0.204-1.027,0.142-1.217,0.106c-0.289-0.056-0.584-0.105-0.861-0.22
	c-0.789-0.321-1.404-0.931-1.734-1.715s-0.334-1.65-0.014-2.438s0.932-1.404,1.717-1.733c0.297-0.125,0.441-0.458,0.342-0.758
	l-1.746-4.154c-0.062-0.149-0.182-0.268-0.332-0.329s-0.318-0.061-0.467,0.002c-0.785,0.33-1.65,0.334-2.439,0.013
	c-0.787-0.322-1.402-0.931-1.732-1.715c-0.682-1.62,0.082-3.492,1.701-4.172c0.148-0.062,0.268-0.182,0.33-0.332
	c0.061-0.15,0.059-0.318-0.004-0.467L52.5,9.258c-0.129-0.311-0.486-0.457-0.799-0.326L0.374,30.517
	c-0.311,0.13-0.456,0.488-0.326,0.799l1.261,2.998c0.062,0.149,0.182,0.269,0.332,0.329c0.15,0.062,0.318,0.06,0.467-0.003
	c0.785-0.33,1.651-0.334,2.439-0.013s1.404,0.931,1.733,1.715c0.682,1.62-0.082,3.491-1.702,4.173
	c-0.311,0.131-0.457,0.488-0.326,0.799l1.729,4.113c0.062,0.148,0.182,0.268,0.332,0.328c0.149,0.061,0.317,0.061,0.467-0.002
	c0.105-0.045,0.212-0.084,0.319-0.115c-0.002,0.02,1.716-0.257,2.429,0.279c0.572,0.43,1.117,0.887,1.395,1.549
	c0.119,0.282,0.186,0.577,0.228,0.877c0.067,0.482-0.073,1.221-0.073,1.221c-0.257,0.896-0.903,1.674-1.828,2.062
	c-0.311,0.131-0.457,0.488-0.326,0.8l1.261,2.999c0.098,0.232,0.325,0.373,0.563,0.373c0.079,0,0.159-0.016,0.236-0.047l24.7-10.389
	l19.264-8.101l7.551-3.233C62.812,33.778,62.453,32.92,62.439,32.891z M25.335,48.393c-0.01,0.005-0.02,0.009-0.029,0.013
	L11.075,54.39l-0.804-1.912c1.859-1.104,2.669-3.445,1.808-5.494c-0.861-2.05-3.101-3.107-5.192-2.554l-1.29-3.065
	c1.859-1.104,2.669-3.445,1.808-5.494c-0.456-1.086-1.308-1.928-2.397-2.372c-0.899-0.367-1.872-0.427-2.794-0.181L1.41,31.405
	l50.204-21.111l0.803,1.913c-1.857,1.105-2.67,3.446-1.807,5.495c0.861,2.049,3.102,3.107,5.189,2.551c0,0,1.111,2.723,1.139,2.784
	l0.123,0.293c-1.859,1.105-2.67,3.446-1.809,5.495c0.752,1.79,2.625,2.888,4.557,2.669c0.023-0.003,0.051-0.007,0.074-0.013
	c0.197-0.024,0.396-0.063,0.592-0.115l0.803,1.911L25.335,48.393z"/>
<path fill="#FFFFFF" d="M41.414,20.764c-0.088-0.208-0.326-0.306-0.535-0.218L16.193,30.927c-0.208,0.088-0.306,0.327-0.218,0.534
	l5.239,12.456c0.041,0.101,0.121,0.18,0.222,0.22c0.05,0.021,0.102,0.031,0.153,0.031c0.054,0,0.107-0.011,0.158-0.032
	l24.686-10.382c0.1-0.041,0.18-0.122,0.221-0.222c0.041-0.101,0.041-0.213-0.004-0.312L41.414,20.764z M21.808,43.225l-4.921-11.703
	L40.82,21.456l4.92,11.703L21.808,43.225z"/>
</svg>
